<svg width="372" height="366" viewBox="0 0 372 366" fill="none" xmlns="http://www.w3.org/2000/svg">
<path d="M128.742 10.4585C125.711 14.2923 4.90728 167.118 4.90728 167.118C2.59776 170.04 3.46948 176.069 8.58167 180.11L232.068 356.769C236.086 359.945 240.653 357.919 242.674 355.363C244.695 352.806 363.767 202.171 366.22 199.068C368.674 195.964 369.735 190.869 365.718 187.693L142.231 11.034C137.119 6.993 131.773 6.62462 128.742 10.4585Z" fill="#026037" stroke="#026037"/>
<path d="M211.691 3.30799C207.251 5.35076 30.2817 86.7842 30.2817 86.7842C26.8984 88.341 24.9417 94.1096 27.6657 100.029L146.751 358.822C148.891 363.474 153.881 363.74 156.841 362.377L163.355 359.38C195.444 344.614 334.621 280.571 337.827 279.096C341.421 277.443 344.677 273.382 342.537 268.73L223.452 9.93739C220.728 4.01763 216.13 1.26523 211.691 3.30799Z" fill="#27885D" stroke="#27885D"/>
<path d="M285.627 31.1876C280.74 31.1874 85.9336 31.1876 85.9336 31.1876C82.2093 31.1876 78.0204 35.61 78.0204 42.1265V327.004C78.0204 332.124 82.4421 334.451 85.7009 334.451H92.871C128.195 334.451 281.399 334.451 284.929 334.451C288.885 334.452 293.54 332.124 293.54 327.004V42.1265C293.54 35.6101 290.514 31.1878 285.627 31.1876Z" fill="#55E6A5"/>
</svg>
